PathFileType	4	(x/y/z)	S10_PSF_T11
DataRate	CameraRate	NumFrames	NumMarkers	Units	OrigDataRate	OrigDataStartFrame	OrigNumFrames
240	240	5	51	mm	240	403	460
Frame#	Time	Sternum			R.Acromium			L.Acromium			Top.Head			R.ASIS			L.ASIS			R.PSIS			L.PSIS			R.Great.Tro			L.Great.Tro			R.Iliac.Crest			L.Iliac.Crest			V.Sacral			R.Thigh.Upper.Post			R.Thigh.Lower.Ant			R.Thigh.Lower.Post			R.Thigh.Upper.Ant			R.Knee.Lat			R.Knee.Med			R.Shank.Upper.Post			R.Shank.Lower.Ant			R.Shank.Lower.Post			R.Shank.Upper.Ant			R.Ankle.Lat			R.Ankle.Med			R.Heel.Upper			R.Heel.Med			R.Heel.Lat			R.Toe.Lat			R.Toe.Med			R.Toe.Tip			L.Thigh.Upper.Post			L.Thigh.Lower.Ant			L.Thigh.Lower.Post			L.Thigh.Upper.Ant			L.Knee.Lat			L.Knee.Med			L.Shank.Upper.Post			L.Shank.Lower.Ant			L.Shank.Lower.Post			L.Shank.Upper.Ant			L.Ankle.Lat			L.Ankle.Med			L.Heel.Upper			L.Heel.Med			L.Heel.Lat			L.Toe.Lat			L.Toe.Med			L.Toe.Tip			Cervical.Spine			Back			
		X1	Y1	Z1	X2	Y2	Z2	X3	Y3	Z3	X4	Y4	Z4	X5	Y5	Z5	X6	Y6	Z6	X7	Y7	Z7	X8	Y8	Z8	X9	Y9	Z9	X10	Y10	Z10	X11	Y11	Z11	X12	Y12	Z12	X13	Y13	Z13	X14	Y14	Z14	X15	Y15	Z15	X16	Y16	Z16	X17	Y17	Z17	X18	Y18	Z18	X19	Y19	Z19	X20	Y20	Z20	X21	Y21	Z21	X22	Y22	Z22	X23	Y23	Z23	X24	Y24	Z24	X25	Y25	Z25	X26	Y26	Z26	X27	Y27	Z27	X28	Y28	Z28	X29	Y29	Z29	X30	Y30	Z30	X31	Y31	Z31	X32	Y32	Z32	X33	Y33	Z33	X34	Y34	Z34	X35	Y35	Z35	X36	Y36	Z36	X37	Y37	Z37	X38	Y38	Z38	X39	Y39	Z39	X40	Y40	Z40	X41	Y41	Z41	X42	Y42	Z42	X43	Y43	Z43	X44	Y44	Z44	X45	Y45	Z45	X46	Y46	Z46	X47	Y47	Z47	X48	Y48	Z48	X49	Y49	Z49	X50	Y50	Z50	X51	Y51	Z51	

403	1.675	669.73	1246	310.28	525.06	1398.5	449.18	592.62	1439	154.85	512.45	1724.1	330.34	612.43	986.62	396.26	616.34	997.3	165.56	412.55	1004.9	307.05	420.95	1014.8	226.27	549.83	908.52	468.36	544.49	938.97	105.5	512.06	1063.7	438.66	555.07	1073.1	138.75	395.14	976.18	266.82	630.38	709.16	467	704.73	653.63	424.67	652.52	622.7	457.34	682.57	742.15	428.66	698.04	510.33	414.66	679.82	504.15	286.22	734.7	280.2	419.39	822.99	256.37	408.73	771.78	214.89	413.23	789.92	326.14	412.87	845.34	124.89	397.57	852.03	142.08	319.5	819.57	55.691	345.3	842.75	37.479	318.28	833.52	35.535	379.64	987.21	104.2	436.45	1013.2	129.64	331.41	1051.7	171.38	376.6	427.21	693.56	118.44	470.51	593.15	143.12	396.15	603.81	144.5	501.89	675.08	120.83	397.71	507.68	152.89	415.75	503.4	280.74	267.49	324.2	164.65	301.46	220.27	183	245.46	250.69	178.63	324.21	292.35	169.11	232.85	124.49	196.13	252.41	137.37	282.04	157.7	104.52	245.4	164.91	71.345	278.18	157.88	73.89	213.54	328.41	40.144	167.54	362.2	43.858	275.71	415.55	46.611	224.99	478.51	1474.9	295.35	394.99	1269.1	256.83
404	1.6792	675.27	1245	310.62	530.69	1397.5	449.74	598.2	1438.4	155.5	517.58	1723.2	330.93	618	985.83	396.37	621.66	996.32	165.58	417.99	1004.1	307.37	426.36	1013.9	226.58	555.61	907.91	468.54	549.68	937.91	105.69	517.62	1062.9	438.88	560.39	1072.1	138.86	400.56	975.3	267.18	636.84	708.95	466.87	711.02	653.53	424	659.16	622.52	457.14	688.68	742	428.08	704.24	509.96	414.27	685.34	503.7	285.97	739.63	279.59	419.07	827.62	255.21	407.8	776.26	214.11	412.94	795.02	325.18	412.09	849.15	123.83	396.92	855.23	140.7	318.71	822.45	55.173	344.97	845.23	36.621	317.89	836.4	35.003	379.36	991.01	102.18	434.87	1016.5	126.99	329.54	1055.7	168.47	374.35	432.07	692.65	118.99	475.39	592.28	143.44	401.08	603.01	144.94	506.85	674.17	121.12	402.4	506.93	153.32	420.7	502.51	281.11	270.6	324.74	164.69	303.39	220.45	183	247.78	251.43	178.58	327	292.25	169.27	233.72	125.37	195.96	253.4	138.1	281.86	158.31	105.88	245.03	165.31	72.797	277.93	158.28	75.144	213.28	328.53	40.076	167.46	362.38	43.898	275.55	415.66	46.463	224.95	484.14	1474.1	296	400.54	1268.4	257.26
405	1.6833	680.85	1244	310.97	536.36	1396.4	450.31	603.77	1437.7	156.16	522.72	1722.3	331.53	623.59	985.09	396.5	627.03	995.37	165.62	423.46	1003.3	307.68	431.8	1013	226.88	561.42	907.35	468.73	554.92	936.86	105.9	523.2	1062.2	439.11	565.75	1071.2	138.97	406.02	974.44	267.53	643.38	708.8	466.73	717.39	653.53	423.33	665.91	622.42	456.93	694.85	741.94	427.5	710.49	509.64	413.87	691.07	503.34	285.72	744.43	279	418.74	832.1	253.98	406.89	780.55	213.32	412.66	800.05	324.2	411.31	852.7	122.71	396.3	858.18	139.24	317.94	824.96	54.721	344.69	847.29	35.78	317.55	838.85	34.519	379.12	994.47	99.886	433.34	1019.5	124.01	327.76	1059.5	165.14	372.18	437.03	691.72	119.59	480.38	591.39	143.8	406.12	602.19	145.44	511.89	673.26	121.46	407.2	506.16	153.79	425.76	501.62	281.53	273.81	325.3	164.77	305.39	220.66	183	250.18	252.2	178.55	329.87	292.17	169.45	234.63	126.31	195.8	254.45	138.86	281.68	158.99	107.35	244.66	165.75	74.351	277.68	158.72	76.496	213.02	328.65	40.013	167.37	362.58	43.936	275.39	415.77	46.315	224.91	489.79	1473.4	296.68	406.12	1267.7	257.7
406	1.6875	686.45	1243	311.33	542.04	1395.4	450.9	609.35	1437.1	156.83	527.87	1721.5	332.13	629.22	984.4	396.65	632.44	994.45	165.68	428.97	1002.5	307.99	437.29	1012.2	227.18	567.26	906.84	468.93	560.22	935.81	106.13	528.79	1061.5	439.36	571.15	1070.3	139.1	411.51	973.62	267.87	649.98	708.71	466.58	723.85	653.6	422.66	672.72	622.39	456.71	701.09	741.95	426.93	716.79	509.36	413.47	696.97	503.06	285.47	749.13	278.43	418.41	836.46	252.71	406	784.69	212.53	412.4	805	323.19	410.52	856.03	121.56	395.71	860.91	137.72	317.21	827.18	54.354	344.43	849	34.983	317.25	840.94	34.1	378.92	997.61	97.353	431.89	1022.2	120.73	326.06	1063.1	161.44	370.11	442.08	690.77	120.22	485.48	590.5	144.21	411.26	601.35	145.98	517.03	672.34	121.84	412.13	505.38	154.3	430.93	500.71	282	277.12	325.9	164.87	307.46	220.91	183.01	252.67	253.03	178.53	332.82	292.12	169.65	235.6	127.3	195.65	255.57	139.67	281.49	159.74	108.92	244.29	166.24	76.013	277.44	159.2	77.954	212.77	328.78	39.957	167.3	362.8	43.97	275.21	415.89	46.165	224.88	495.45	1472.7	297.38	411.72	1267.1	258.16
407	1.6917	692.09	1242.2	311.69	547.75	1394.5	451.5	614.93	1436.6	157.51	533.01	1720.6	332.74	634.89	983.77	396.83	637.9	993.57	165.77	434.53	1001.8	308.29	442.82	1011.3	227.46	573.13	906.38	469.15	565.57	934.78	106.38	534.4	1060.8	439.61	576.61	1069.5	139.23	417.04	972.82	268.21	656.62	708.67	466.43	730.36	653.74	422.01	679.59	622.4	456.48	707.38	742.02	426.38	723.12	509.11	413.08	703.02	502.87	285.22	753.74	277.9	418.07	840.73	251.43	405.15	788.71	211.74	412.16	809.9	322.19	409.75	859.17	120.4	395.16	863.49	136.18	316.52	829.14	54.089	344.21	850.4	34.251	316.98	842.71	33.763	378.75	1000.5	94.607	430.52	1024.8	117.2	324.47	1066.5	157.41	368.17	447.23	689.81	120.9	490.69	589.6	144.67	416.53	600.48	146.58	522.26	671.43	122.26	417.18	504.58	154.85	436.22	499.79	282.52	280.53	326.53	164.99	309.61	221.2	183.03	255.25	253.9	178.54	335.86	292.1	169.86	236.64	128.37	195.51	256.76	140.53	281.31	160.56	110.6	243.93	166.79	77.786	277.19	159.74	79.524	212.52	328.91	39.91	167.23	363.03	43.998	275.02	416.01	46.014	224.86	501.13	1472	298.09	417.36	1266.5	258.63
